<mxfile host="app.diagrams.net" modified="2023-02-25T22:38:31.475Z" agent="5.0 (Windows NT 10.0; Win64; x64) AppleWebKit/537.36 (KHTML, like Gecko) Chrome/110.0.0.0 Safari/537.36" etag="eNpLZsRErOUrcdVt49EC" version="20.8.23" type="github">
  <diagram name="Página-1" id="D0qjfCOT4rrVcBoD1jLo">
    <mxGraphModel dx="1390" dy="616" grid="1" gridSize="10" guides="1" tooltips="1" connect="1" arrows="1" fold="1" page="1" pageScale="1" pageWidth="827" pageHeight="1169" math="0" shadow="0">
      <root>
        <mxCell id="0" />
        <mxCell id="1" parent="0" />
        <mxCell id="jNsX9M7q37Ci3omz_om8-10" style="edgeStyle=orthogonalEdgeStyle;rounded=0;orthogonalLoop=1;jettySize=auto;html=1;entryX=0;entryY=0.5;entryDx=0;entryDy=0;exitX=1;exitY=0.5;exitDx=0;exitDy=0;" edge="1" parent="1" source="jNsX9M7q37Ci3omz_om8-18" target="jNsX9M7q37Ci3omz_om8-9">
          <mxGeometry relative="1" as="geometry">
            <mxPoint x="260" y="130" as="sourcePoint" />
          </mxGeometry>
        </mxCell>
        <mxCell id="jNsX9M7q37Ci3omz_om8-11" style="edgeStyle=orthogonalEdgeStyle;rounded=0;orthogonalLoop=1;jettySize=auto;html=1;exitX=1;exitY=0;exitDx=0;exitDy=0;entryX=0;entryY=1;entryDx=0;entryDy=0;" edge="1" parent="1" source="jNsX9M7q37Ci3omz_om8-18" target="jNsX9M7q37Ci3omz_om8-5">
          <mxGeometry relative="1" as="geometry">
            <mxPoint x="260" y="110" as="sourcePoint" />
          </mxGeometry>
        </mxCell>
        <mxCell id="jNsX9M7q37Ci3omz_om8-13" style="edgeStyle=orthogonalEdgeStyle;rounded=0;orthogonalLoop=1;jettySize=auto;html=1;exitX=0.25;exitY=0;exitDx=0;exitDy=0;entryX=1;entryY=1;entryDx=0;entryDy=0;" edge="1" parent="1" source="jNsX9M7q37Ci3omz_om8-18" target="jNsX9M7q37Ci3omz_om8-2">
          <mxGeometry relative="1" as="geometry">
            <mxPoint x="160" y="110" as="sourcePoint" />
          </mxGeometry>
        </mxCell>
        <mxCell id="jNsX9M7q37Ci3omz_om8-14" style="edgeStyle=orthogonalEdgeStyle;rounded=0;orthogonalLoop=1;jettySize=auto;html=1;exitX=0;exitY=0.5;exitDx=0;exitDy=0;entryX=1;entryY=0.5;entryDx=0;entryDy=0;" edge="1" parent="1" target="jNsX9M7q37Ci3omz_om8-7">
          <mxGeometry relative="1" as="geometry">
            <mxPoint x="160" y="130" as="sourcePoint" />
          </mxGeometry>
        </mxCell>
        <mxCell id="jNsX9M7q37Ci3omz_om8-16" style="edgeStyle=orthogonalEdgeStyle;rounded=0;orthogonalLoop=1;jettySize=auto;html=1;exitX=0;exitY=0.75;exitDx=0;exitDy=0;" edge="1" parent="1" source="jNsX9M7q37Ci3omz_om8-18" target="jNsX9M7q37Ci3omz_om8-6">
          <mxGeometry relative="1" as="geometry">
            <mxPoint x="160" y="150" as="sourcePoint" />
            <Array as="points">
              <mxPoint x="160" y="170" />
            </Array>
          </mxGeometry>
        </mxCell>
        <mxCell id="jNsX9M7q37Ci3omz_om8-2" value="ID" style="ellipse;whiteSpace=wrap;html=1;align=center;fontStyle=4;" vertex="1" parent="1">
          <mxGeometry x="40" y="20" width="100" height="40" as="geometry" />
        </mxCell>
        <mxCell id="jNsX9M7q37Ci3omz_om8-4" value="Nombre" style="ellipse;whiteSpace=wrap;html=1;align=center;" vertex="1" parent="1">
          <mxGeometry x="160" y="40" width="100" height="40" as="geometry" />
        </mxCell>
        <mxCell id="jNsX9M7q37Ci3omz_om8-5" value="Teléfono" style="ellipse;shape=doubleEllipse;margin=3;whiteSpace=wrap;html=1;align=center;" vertex="1" parent="1">
          <mxGeometry x="280" y="20" width="100" height="40" as="geometry" />
        </mxCell>
        <mxCell id="jNsX9M7q37Ci3omz_om8-6" value="Dirección" style="ellipse;whiteSpace=wrap;html=1;align=center;" vertex="1" parent="1">
          <mxGeometry x="40" y="150" width="100" height="40" as="geometry" />
        </mxCell>
        <mxCell id="jNsX9M7q37Ci3omz_om8-7" value="Salario" style="ellipse;whiteSpace=wrap;html=1;align=center;" vertex="1" parent="1">
          <mxGeometry x="20" y="90" width="100" height="40" as="geometry" />
        </mxCell>
        <mxCell id="jNsX9M7q37Ci3omz_om8-9" value="Población" style="ellipse;whiteSpace=wrap;html=1;align=center;" vertex="1" parent="1">
          <mxGeometry x="314" y="80" width="100" height="40" as="geometry" />
        </mxCell>
        <mxCell id="jNsX9M7q37Ci3omz_om8-21" style="edgeStyle=orthogonalEdgeStyle;rounded=0;orthogonalLoop=1;jettySize=auto;html=1;entryX=0.5;entryY=1;entryDx=0;entryDy=0;" edge="1" parent="1" source="jNsX9M7q37Ci3omz_om8-18" target="jNsX9M7q37Ci3omz_om8-4">
          <mxGeometry relative="1" as="geometry" />
        </mxCell>
        <mxCell id="jNsX9M7q37Ci3omz_om8-18" value="Camioneros" style="rounded=1;arcSize=10;whiteSpace=wrap;html=1;align=center;" vertex="1" parent="1">
          <mxGeometry x="160" y="110" width="100" height="40" as="geometry" />
        </mxCell>
        <mxCell id="jNsX9M7q37Ci3omz_om8-27" style="edgeStyle=orthogonalEdgeStyle;rounded=0;orthogonalLoop=1;jettySize=auto;html=1;" edge="1" parent="1" source="jNsX9M7q37Ci3omz_om8-22" target="jNsX9M7q37Ci3omz_om8-26">
          <mxGeometry relative="1" as="geometry" />
        </mxCell>
        <mxCell id="jNsX9M7q37Ci3omz_om8-28" style="edgeStyle=orthogonalEdgeStyle;rounded=0;orthogonalLoop=1;jettySize=auto;html=1;exitX=0.75;exitY=0;exitDx=0;exitDy=0;" edge="1" parent="1" source="jNsX9M7q37Ci3omz_om8-22" target="jNsX9M7q37Ci3omz_om8-25">
          <mxGeometry relative="1" as="geometry" />
        </mxCell>
        <mxCell id="jNsX9M7q37Ci3omz_om8-29" style="edgeStyle=orthogonalEdgeStyle;rounded=0;orthogonalLoop=1;jettySize=auto;html=1;exitX=0.5;exitY=0;exitDx=0;exitDy=0;entryX=0.254;entryY=0.91;entryDx=0;entryDy=0;entryPerimeter=0;" edge="1" parent="1" source="jNsX9M7q37Ci3omz_om8-22" target="jNsX9M7q37Ci3omz_om8-24">
          <mxGeometry relative="1" as="geometry" />
        </mxCell>
        <mxCell id="jNsX9M7q37Ci3omz_om8-30" style="edgeStyle=orthogonalEdgeStyle;rounded=0;orthogonalLoop=1;jettySize=auto;html=1;exitX=0.25;exitY=0;exitDx=0;exitDy=0;entryX=0.5;entryY=1;entryDx=0;entryDy=0;" edge="1" parent="1" source="jNsX9M7q37Ci3omz_om8-22" target="jNsX9M7q37Ci3omz_om8-23">
          <mxGeometry relative="1" as="geometry" />
        </mxCell>
        <mxCell id="jNsX9M7q37Ci3omz_om8-22" value="Paquetes" style="rounded=1;arcSize=10;whiteSpace=wrap;html=1;align=center;" vertex="1" parent="1">
          <mxGeometry x="570" y="110" width="100" height="40" as="geometry" />
        </mxCell>
        <mxCell id="jNsX9M7q37Ci3omz_om8-23" value="Código" style="ellipse;whiteSpace=wrap;html=1;align=center;fontStyle=4;" vertex="1" parent="1">
          <mxGeometry x="480" y="20" width="100" height="40" as="geometry" />
        </mxCell>
        <mxCell id="jNsX9M7q37Ci3omz_om8-24" value="Descripción" style="ellipse;whiteSpace=wrap;html=1;align=center;" vertex="1" parent="1">
          <mxGeometry x="610" y="20" width="100" height="40" as="geometry" />
        </mxCell>
        <mxCell id="jNsX9M7q37Ci3omz_om8-25" value="Destinatario" style="ellipse;whiteSpace=wrap;html=1;align=center;" vertex="1" parent="1">
          <mxGeometry x="710" y="70" width="100" height="40" as="geometry" />
        </mxCell>
        <mxCell id="jNsX9M7q37Ci3omz_om8-26" value="Dirección destinatario" style="ellipse;whiteSpace=wrap;html=1;align=center;" vertex="1" parent="1">
          <mxGeometry x="700" y="140" width="100" height="40" as="geometry" />
        </mxCell>
        <mxCell id="jNsX9M7q37Ci3omz_om8-31" value="Distribuye" style="shape=rhombus;perimeter=rhombusPerimeter;whiteSpace=wrap;html=1;align=center;" vertex="1" parent="1">
          <mxGeometry x="380" y="140" width="120" height="60" as="geometry" />
        </mxCell>
        <mxCell id="jNsX9M7q37Ci3omz_om8-32" value="" style="endArrow=none;html=1;rounded=0;exitX=1;exitY=1;exitDx=0;exitDy=0;entryX=0;entryY=0.5;entryDx=0;entryDy=0;" edge="1" parent="1" source="jNsX9M7q37Ci3omz_om8-18" target="jNsX9M7q37Ci3omz_om8-31">
          <mxGeometry relative="1" as="geometry">
            <mxPoint x="340" y="270" as="sourcePoint" />
            <mxPoint x="500" y="270" as="targetPoint" />
          </mxGeometry>
        </mxCell>
        <mxCell id="jNsX9M7q37Ci3omz_om8-33" value="1" style="resizable=0;html=1;align=right;verticalAlign=bottom;" connectable="0" vertex="1" parent="jNsX9M7q37Ci3omz_om8-32">
          <mxGeometry x="1" relative="1" as="geometry" />
        </mxCell>
        <mxCell id="jNsX9M7q37Ci3omz_om8-36" value="" style="endArrow=none;html=1;rounded=0;entryX=1;entryY=0.5;entryDx=0;entryDy=0;exitX=0;exitY=1;exitDx=0;exitDy=0;" edge="1" parent="1" source="jNsX9M7q37Ci3omz_om8-22" target="jNsX9M7q37Ci3omz_om8-31">
          <mxGeometry relative="1" as="geometry">
            <mxPoint x="340" y="270" as="sourcePoint" />
            <mxPoint x="500" y="270" as="targetPoint" />
          </mxGeometry>
        </mxCell>
        <mxCell id="jNsX9M7q37Ci3omz_om8-37" value="N" style="resizable=0;html=1;align=right;verticalAlign=bottom;" connectable="0" vertex="1" parent="jNsX9M7q37Ci3omz_om8-36">
          <mxGeometry x="1" relative="1" as="geometry">
            <mxPoint x="2" y="-1" as="offset" />
          </mxGeometry>
        </mxCell>
        <mxCell id="jNsX9M7q37Ci3omz_om8-41" style="edgeStyle=orthogonalEdgeStyle;rounded=0;orthogonalLoop=1;jettySize=auto;html=1;entryX=1;entryY=0.5;entryDx=0;entryDy=0;" edge="1" parent="1" source="jNsX9M7q37Ci3omz_om8-38" target="jNsX9M7q37Ci3omz_om8-39">
          <mxGeometry relative="1" as="geometry" />
        </mxCell>
        <mxCell id="jNsX9M7q37Ci3omz_om8-42" style="edgeStyle=orthogonalEdgeStyle;rounded=0;orthogonalLoop=1;jettySize=auto;html=1;exitX=0;exitY=0;exitDx=0;exitDy=0;entryX=1;entryY=0.5;entryDx=0;entryDy=0;" edge="1" parent="1" source="jNsX9M7q37Ci3omz_om8-38" target="jNsX9M7q37Ci3omz_om8-40">
          <mxGeometry relative="1" as="geometry" />
        </mxCell>
        <mxCell id="jNsX9M7q37Ci3omz_om8-38" value="Ciudad" style="rounded=1;arcSize=10;whiteSpace=wrap;html=1;align=center;" vertex="1" parent="1">
          <mxGeometry x="480" y="380" width="100" height="40" as="geometry" />
        </mxCell>
        <mxCell id="jNsX9M7q37Ci3omz_om8-39" value="Código" style="ellipse;whiteSpace=wrap;html=1;align=center;fontStyle=4;" vertex="1" parent="1">
          <mxGeometry x="350" y="420" width="100" height="40" as="geometry" />
        </mxCell>
        <mxCell id="jNsX9M7q37Ci3omz_om8-40" value="Nombre" style="ellipse;whiteSpace=wrap;html=1;align=center;" vertex="1" parent="1">
          <mxGeometry x="350" y="320" width="100" height="40" as="geometry" />
        </mxCell>
        <mxCell id="jNsX9M7q37Ci3omz_om8-43" value="Llegar" style="shape=rhombus;perimeter=rhombusPerimeter;whiteSpace=wrap;html=1;align=center;" vertex="1" parent="1">
          <mxGeometry x="550" y="240" width="120" height="60" as="geometry" />
        </mxCell>
        <mxCell id="jNsX9M7q37Ci3omz_om8-44" value="" style="endArrow=none;html=1;rounded=0;exitX=0.5;exitY=1;exitDx=0;exitDy=0;entryX=0.5;entryY=0;entryDx=0;entryDy=0;" edge="1" parent="1" source="jNsX9M7q37Ci3omz_om8-22" target="jNsX9M7q37Ci3omz_om8-43">
          <mxGeometry relative="1" as="geometry">
            <mxPoint x="340" y="270" as="sourcePoint" />
            <mxPoint x="500" y="270" as="targetPoint" />
          </mxGeometry>
        </mxCell>
        <mxCell id="jNsX9M7q37Ci3omz_om8-45" value="N" style="resizable=0;html=1;align=right;verticalAlign=bottom;" connectable="0" vertex="1" parent="jNsX9M7q37Ci3omz_om8-44">
          <mxGeometry x="1" relative="1" as="geometry">
            <mxPoint x="-1" y="-3" as="offset" />
          </mxGeometry>
        </mxCell>
        <mxCell id="jNsX9M7q37Ci3omz_om8-46" value="" style="endArrow=none;html=1;rounded=0;exitX=1;exitY=0;exitDx=0;exitDy=0;entryX=0.417;entryY=1;entryDx=0;entryDy=0;entryPerimeter=0;" edge="1" parent="1" source="jNsX9M7q37Ci3omz_om8-38" target="jNsX9M7q37Ci3omz_om8-43">
          <mxGeometry relative="1" as="geometry">
            <mxPoint x="340" y="270" as="sourcePoint" />
            <mxPoint x="500" y="270" as="targetPoint" />
          </mxGeometry>
        </mxCell>
        <mxCell id="jNsX9M7q37Ci3omz_om8-47" value="1" style="resizable=0;html=1;align=right;verticalAlign=bottom;" connectable="0" vertex="1" parent="jNsX9M7q37Ci3omz_om8-46">
          <mxGeometry x="1" relative="1" as="geometry">
            <mxPoint x="-6" y="10" as="offset" />
          </mxGeometry>
        </mxCell>
        <mxCell id="jNsX9M7q37Ci3omz_om8-53" value="" style="edgeStyle=orthogonalEdgeStyle;rounded=0;orthogonalLoop=1;jettySize=auto;html=1;" edge="1" parent="1" source="jNsX9M7q37Ci3omz_om8-48" target="jNsX9M7q37Ci3omz_om8-52">
          <mxGeometry relative="1" as="geometry" />
        </mxCell>
        <mxCell id="jNsX9M7q37Ci3omz_om8-54" value="" style="edgeStyle=orthogonalEdgeStyle;rounded=0;orthogonalLoop=1;jettySize=auto;html=1;" edge="1" parent="1" source="jNsX9M7q37Ci3omz_om8-48" target="jNsX9M7q37Ci3omz_om8-51">
          <mxGeometry relative="1" as="geometry">
            <Array as="points">
              <mxPoint x="70" y="410" />
            </Array>
          </mxGeometry>
        </mxCell>
        <mxCell id="jNsX9M7q37Ci3omz_om8-55" value="" style="edgeStyle=orthogonalEdgeStyle;rounded=0;orthogonalLoop=1;jettySize=auto;html=1;" edge="1" parent="1" source="jNsX9M7q37Ci3omz_om8-48" target="jNsX9M7q37Ci3omz_om8-50">
          <mxGeometry relative="1" as="geometry" />
        </mxCell>
        <mxCell id="jNsX9M7q37Ci3omz_om8-56" style="edgeStyle=orthogonalEdgeStyle;rounded=0;orthogonalLoop=1;jettySize=auto;html=1;entryX=1;entryY=0.5;entryDx=0;entryDy=0;exitX=0;exitY=0;exitDx=0;exitDy=0;" edge="1" parent="1" source="jNsX9M7q37Ci3omz_om8-48" target="jNsX9M7q37Ci3omz_om8-49">
          <mxGeometry relative="1" as="geometry" />
        </mxCell>
        <mxCell id="jNsX9M7q37Ci3omz_om8-48" value="Camiones" style="rounded=1;arcSize=10;whiteSpace=wrap;html=1;align=center;" vertex="1" parent="1">
          <mxGeometry x="170" y="370" width="100" height="40" as="geometry" />
        </mxCell>
        <mxCell id="jNsX9M7q37Ci3omz_om8-49" value="Matricula" style="ellipse;whiteSpace=wrap;html=1;align=center;fontStyle=4;" vertex="1" parent="1">
          <mxGeometry x="20" y="280" width="100" height="40" as="geometry" />
        </mxCell>
        <mxCell id="jNsX9M7q37Ci3omz_om8-50" value="Modelo" style="ellipse;whiteSpace=wrap;html=1;align=center;" vertex="1" parent="1">
          <mxGeometry x="10" y="350" width="100" height="40" as="geometry" />
        </mxCell>
        <mxCell id="jNsX9M7q37Ci3omz_om8-51" value="Tipo" style="ellipse;whiteSpace=wrap;html=1;align=center;" vertex="1" parent="1">
          <mxGeometry x="20" y="430" width="100" height="40" as="geometry" />
        </mxCell>
        <mxCell id="jNsX9M7q37Ci3omz_om8-52" value="Potencia" style="ellipse;whiteSpace=wrap;html=1;align=center;" vertex="1" parent="1">
          <mxGeometry x="140" y="470" width="100" height="40" as="geometry" />
        </mxCell>
        <mxCell id="jNsX9M7q37Ci3omz_om8-57" value="Conducir" style="shape=rhombus;perimeter=rhombusPerimeter;whiteSpace=wrap;html=1;align=center;" vertex="1" parent="1">
          <mxGeometry x="194" y="240" width="120" height="60" as="geometry" />
        </mxCell>
        <mxCell id="jNsX9M7q37Ci3omz_om8-60" style="edgeStyle=orthogonalEdgeStyle;rounded=0;orthogonalLoop=1;jettySize=auto;html=1;entryX=1;entryY=0;entryDx=0;entryDy=0;" edge="1" parent="1" source="jNsX9M7q37Ci3omz_om8-58" target="jNsX9M7q37Ci3omz_om8-57">
          <mxGeometry relative="1" as="geometry" />
        </mxCell>
        <mxCell id="jNsX9M7q37Ci3omz_om8-58" value="&lt;font style=&quot;vertical-align: inherit;&quot;&gt;&lt;font style=&quot;vertical-align: inherit;&quot;&gt;Fecha&lt;/font&gt;&lt;/font&gt;" style="ellipse;whiteSpace=wrap;html=1;align=center;" vertex="1" parent="1">
          <mxGeometry x="300" y="200" width="60" height="20" as="geometry" />
        </mxCell>
        <mxCell id="jNsX9M7q37Ci3omz_om8-62" value="" style="endArrow=none;html=1;rounded=0;exitX=0.5;exitY=1;exitDx=0;exitDy=0;entryX=0.5;entryY=0;entryDx=0;entryDy=0;" edge="1" parent="1" source="jNsX9M7q37Ci3omz_om8-18" target="jNsX9M7q37Ci3omz_om8-57">
          <mxGeometry relative="1" as="geometry">
            <mxPoint x="340" y="270" as="sourcePoint" />
            <mxPoint x="500" y="270" as="targetPoint" />
          </mxGeometry>
        </mxCell>
        <mxCell id="jNsX9M7q37Ci3omz_om8-63" value="N" style="resizable=0;html=1;align=right;verticalAlign=bottom;" connectable="0" vertex="1" parent="jNsX9M7q37Ci3omz_om8-62">
          <mxGeometry x="1" relative="1" as="geometry">
            <mxPoint x="-8" as="offset" />
          </mxGeometry>
        </mxCell>
        <mxCell id="jNsX9M7q37Ci3omz_om8-66" value="" style="endArrow=none;html=1;rounded=0;exitX=0.5;exitY=0;exitDx=0;exitDy=0;entryX=0.5;entryY=1;entryDx=0;entryDy=0;" edge="1" parent="1" source="jNsX9M7q37Ci3omz_om8-48" target="jNsX9M7q37Ci3omz_om8-57">
          <mxGeometry relative="1" as="geometry">
            <mxPoint x="270" y="250" as="sourcePoint" />
            <mxPoint x="430" y="250" as="targetPoint" />
          </mxGeometry>
        </mxCell>
        <mxCell id="jNsX9M7q37Ci3omz_om8-67" value="N" style="resizable=0;html=1;align=right;verticalAlign=bottom;" connectable="0" vertex="1" parent="jNsX9M7q37Ci3omz_om8-66">
          <mxGeometry x="1" relative="1" as="geometry">
            <mxPoint x="-9" y="11" as="offset" />
          </mxGeometry>
        </mxCell>
      </root>
    </mxGraphModel>
  </diagram>
</mxfile>
